<?xml version="1.0" encoding="utf-8"?>
<!-- Generator: Adobe Illustrator 24.0.0, SVG Export Plug-In . SVG Version: 6.00 Build 0)  -->
<svg version="1.1" id="Layer_1" xmlns="http://www.w3.org/2000/svg" xmlns:xlink="http://www.w3.org/1999/xlink" x="0px" y="0px"
	 viewBox="0 0 233 68" style="enable-background:new 0 0 233 68;" xml:space="preserve">
<style type="text/css">
	.st0{filter:url(#Adobe_OpacityMaskFilter);}
	.st1{fill-rule:evenodd;clip-rule:evenodd;fill:#FFFFFF;}
	.st2{mask:url(#mask-4_16_);fill-rule:evenodd;clip-rule:evenodd;fill:#56C02B;}
	.st3{filter:url(#Adobe_OpacityMaskFilter_1_);}
	.st4{mask:url(#mask-4_17_);fill-rule:evenodd;clip-rule:evenodd;fill:#DDA63A;}
	.st5{filter:url(#Adobe_OpacityMaskFilter_2_);}
	.st6{mask:url(#mask-4_18_);fill-rule:evenodd;clip-rule:evenodd;fill:#C5192D;}
	.st7{filter:url(#Adobe_OpacityMaskFilter_3_);}
	.st8{mask:url(#mask-4_19_);fill-rule:evenodd;clip-rule:evenodd;fill:#4C9F38;}
	.st9{filter:url(#Adobe_OpacityMaskFilter_4_);}
	.st10{mask:url(#mask-4_20_);fill-rule:evenodd;clip-rule:evenodd;fill:#3F7E44;}
	.st11{filter:url(#Adobe_OpacityMaskFilter_5_);}
	.st12{mask:url(#mask-4_21_);fill-rule:evenodd;clip-rule:evenodd;fill:#FCC30B;}
	.st13{filter:url(#Adobe_OpacityMaskFilter_6_);}
	.st14{mask:url(#mask-4_22_);fill-rule:evenodd;clip-rule:evenodd;fill:#FF3A21;}
	.st15{filter:url(#Adobe_OpacityMaskFilter_7_);}
	.st16{mask:url(#mask-4_23_);fill-rule:evenodd;clip-rule:evenodd;fill:#FD9D24;}
	.st17{filter:url(#Adobe_OpacityMaskFilter_8_);}
	.st18{mask:url(#mask-4_24_);fill-rule:evenodd;clip-rule:evenodd;fill:#0A97D9;}
	.st19{filter:url(#Adobe_OpacityMaskFilter_9_);}
	.st20{mask:url(#mask-4_25_);fill-rule:evenodd;clip-rule:evenodd;fill:#A21942;}
	.st21{filter:url(#Adobe_OpacityMaskFilter_10_);}
	.st22{mask:url(#mask-4_26_);fill-rule:evenodd;clip-rule:evenodd;fill:#26BDE2;}
	.st23{filter:url(#Adobe_OpacityMaskFilter_11_);}
	.st24{mask:url(#mask-4_27_);fill-rule:evenodd;clip-rule:evenodd;fill:#FD6925;}
	.st25{filter:url(#Adobe_OpacityMaskFilter_12_);}
	.st26{mask:url(#mask-4_28_);fill-rule:evenodd;clip-rule:evenodd;fill:#E5243B;}
	.st27{filter:url(#Adobe_OpacityMaskFilter_13_);}
	.st28{mask:url(#mask-4_29_);fill-rule:evenodd;clip-rule:evenodd;fill:#DD1367;}
	.st29{filter:url(#Adobe_OpacityMaskFilter_14_);}
	.st30{mask:url(#mask-4_30_);fill-rule:evenodd;clip-rule:evenodd;fill:#19486A;}
	.st31{filter:url(#Adobe_OpacityMaskFilter_15_);}
	.st32{mask:url(#mask-4_31_);fill-rule:evenodd;clip-rule:evenodd;fill:#BF8B2E;}
	.st33{filter:url(#Adobe_OpacityMaskFilter_16_);}
	.st34{mask:url(#mask-4_32_);fill-rule:evenodd;clip-rule:evenodd;fill:#00689D;}
</style>
<title>wfp-logo-extended-black-en</title>
<desc>Created with Sketch.</desc>
<g id="Clip-11">
</g>
<defs>
	<filter id="Adobe_OpacityMaskFilter" filterUnits="userSpaceOnUse" x="169.2" y="17.7" width="10.8" height="9.8">
		<feColorMatrix  type="matrix" values="1 0 0 0 0  0 1 0 0 0  0 0 1 0 0  0 0 0 1 0"/>
	</filter>
</defs>
<mask maskUnits="userSpaceOnUse" x="169.2" y="17.7" width="10.8" height="9.8" id="mask-4_16_">
	<g class="st0">
		<polygon id="path-3_16_" class="st1" points="-7.3,63 211.4,63 211.4,5 -7.3,5 		"/>
	</g>
</mask>
<path id="Fill-26" class="st2" d="M178,27.6c0.6-1,1.2-1.8,2-2.6l-6.6-7.3c-1.7,1.6-3.1,3.4-4.2,5.5L178,27.6z"/>
<defs>
	<filter id="Adobe_OpacityMaskFilter_1_" filterUnits="userSpaceOnUse" x="194.2" y="13.3" width="9.4" height="10.9">
		<feColorMatrix  type="matrix" values="1 0 0 0 0  0 1 0 0 0  0 0 1 0 0  0 0 0 1 0"/>
	</filter>
</defs>
<mask maskUnits="userSpaceOnUse" x="194.2" y="13.3" width="9.4" height="10.9" id="mask-4_17_">
	<g class="st3">
		<polygon id="path-3_17_" class="st1" points="-7.3,63 211.4,63 211.4,5 -7.3,5 		"/>
	</g>
</mask>
<path id="Fill-27" class="st4" d="M194.2,22.5c1,0.5,1.9,1,2.8,1.7l6.6-7.2c-1.7-1.5-3.7-2.7-5.9-3.7L194.2,22.5z"/>
<defs>
	<filter id="Adobe_OpacityMaskFilter_2_" filterUnits="userSpaceOnUse" x="200.6" y="24.6" width="10.7" height="7.5">
		<feColorMatrix  type="matrix" values="1 0 0 0 0  0 1 0 0 0  0 0 1 0 0  0 0 0 1 0"/>
	</filter>
</defs>
<mask maskUnits="userSpaceOnUse" x="200.6" y="24.6" width="10.7" height="7.5" id="mask-4_18_">
	<g class="st5">
		<polygon id="path-3_18_" class="st1" points="-7.3,63 211.4,63 211.4,5 -7.3,5 		"/>
	</g>
</mask>
<path id="Fill-28" class="st6" d="M209.4,24.6l-8.8,4.4c0.4,1,0.7,2,0.9,3.1l9.8-0.9C211,28.9,210.3,26.7,209.4,24.6"/>
<defs>
	<filter id="Adobe_OpacityMaskFilter_3_" filterUnits="userSpaceOnUse" x="198" y="17.9" width="10.7" height="9.8">
		<feColorMatrix  type="matrix" values="1 0 0 0 0  0 1 0 0 0  0 0 1 0 0  0 0 0 1 0"/>
	</filter>
</defs>
<mask maskUnits="userSpaceOnUse" x="198" y="17.9" width="10.7" height="9.8" id="mask-4_19_">
	<g class="st7">
		<polygon id="path-3_19_" class="st1" points="-7.3,63 211.4,63 211.4,5 -7.3,5 		"/>
	</g>
</mask>
<path id="Fill-29" class="st8" d="M200,27.8l8.8-4.4c-1.1-2-2.5-3.9-4.1-5.5l-6.6,7.2C198.8,25.9,199.4,26.8,200,27.8"/>
<defs>
	<filter id="Adobe_OpacityMaskFilter_4_" filterUnits="userSpaceOnUse" x="166.4" y="32.5" width="10.1" height="6.9">
		<feColorMatrix  type="matrix" values="1 0 0 0 0  0 1 0 0 0  0 0 1 0 0  0 0 0 1 0"/>
	</filter>
</defs>
<mask maskUnits="userSpaceOnUse" x="166.4" y="32.5" width="10.1" height="6.9" id="mask-4_20_">
	<g class="st9">
		<polygon id="path-3_20_" class="st1" points="-7.3,63 211.4,63 211.4,5 -7.3,5 		"/>
	</g>
</mask>
<path id="Fill-30" class="st10" d="M176.2,34c0-0.2,0-0.4,0-0.6l-9.8-0.9c0,0.5,0,1,0,1.5c0,1.9,0.2,3.7,0.7,5.4l9.4-2.7
	C176.3,35.8,176.2,34.9,176.2,34"/>
<defs>
	<filter id="Adobe_OpacityMaskFilter_5_" filterUnits="userSpaceOnUse" x="196.3" y="42" width="10.2" height="10.6">
		<feColorMatrix  type="matrix" values="1 0 0 0 0  0 1 0 0 0  0 0 1 0 0  0 0 0 1 0"/>
	</filter>
</defs>
<mask maskUnits="userSpaceOnUse" x="196.3" y="42" width="10.2" height="10.6" id="mask-4_21_">
	<g class="st11">
		<polygon id="path-3_21_" class="st1" points="-7.3,63 211.4,63 211.4,5 -7.3,5 		"/>
	</g>
</mask>
<path id="Fill-31" class="st12" d="M198.7,42c-0.7,0.8-1.5,1.6-2.4,2.2l5.2,8.4c1.9-1.3,3.6-2.9,5.1-4.7L198.7,42z"/>
<defs>
	<filter id="Adobe_OpacityMaskFilter_6_" filterUnits="userSpaceOnUse" x="201.3" y="32.6" width="10.1" height="6.8">
		<feColorMatrix  type="matrix" values="1 0 0 0 0  0 1 0 0 0  0 0 1 0 0  0 0 0 1 0"/>
	</filter>
</defs>
<mask maskUnits="userSpaceOnUse" x="201.3" y="32.6" width="10.1" height="6.8" id="mask-4_22_">
	<g class="st13">
		<polygon id="path-3_22_" class="st1" points="-7.3,63 211.4,63 211.4,5 -7.3,5 		"/>
	</g>
</mask>
<path id="Fill-32" class="st14" d="M201.6,34c0,0.9-0.1,1.8-0.3,2.7l9.4,2.7c0.4-1.7,0.7-3.5,0.7-5.4c0-0.5,0-0.9,0-1.4l-9.8,0.9
	C201.6,33.7,201.6,33.8,201.6,34"/>
<defs>
	<filter id="Adobe_OpacityMaskFilter_7_" filterUnits="userSpaceOnUse" x="171.5" y="42.2" width="10.3" height="10.6">
		<feColorMatrix  type="matrix" values="1 0 0 0 0  0 1 0 0 0  0 0 1 0 0  0 0 0 1 0"/>
	</filter>
</defs>
<mask maskUnits="userSpaceOnUse" x="171.5" y="42.2" width="10.3" height="10.6" id="mask-4_23_">
	<g class="st15">
		<polygon id="path-3_23_" class="st1" points="-7.3,63 211.4,63 211.4,5 -7.3,5 		"/>
	</g>
</mask>
<path id="Fill-33" class="st16" d="M179.3,42.2l-7.8,5.9c1.5,1.8,3.2,3.4,5.1,4.6l5.2-8.4C180.8,43.8,180,43.1,179.3,42.2"/>
<defs>
	<filter id="Adobe_OpacityMaskFilter_8_" filterUnits="userSpaceOnUse" x="166.6" y="24.5" width="10.7" height="7.5">
		<feColorMatrix  type="matrix" values="1 0 0 0 0  0 1 0 0 0  0 0 1 0 0  0 0 0 1 0"/>
	</filter>
</defs>
<mask maskUnits="userSpaceOnUse" x="166.6" y="24.5" width="10.7" height="7.5" id="mask-4_24_">
	<g class="st17">
		<polygon id="path-3_24_" class="st1" points="-7.3,63 211.4,63 211.4,5 -7.3,5 		"/>
	</g>
</mask>
<path id="Fill-34" class="st18" d="M176.4,32c0.2-1.1,0.5-2.2,0.9-3.1l-8.8-4.4c-1,2.1-1.6,4.3-1.9,6.6L176.4,32z"/>
<defs>
	<filter id="Adobe_OpacityMaskFilter_9_" filterUnits="userSpaceOnUse" x="192.1" y="45" width="8.2" height="10.9">
		<feColorMatrix  type="matrix" values="1 0 0 0 0  0 1 0 0 0  0 0 1 0 0  0 0 0 1 0"/>
	</filter>
</defs>
<mask maskUnits="userSpaceOnUse" x="192.1" y="45" width="8.2" height="10.9" id="mask-4_25_">
	<g class="st19">
		<polygon id="path-3_25_" class="st1" points="-7.3,63 211.4,63 211.4,5 -7.3,5 		"/>
	</g>
</mask>
<path id="Fill-35" class="st20" d="M200.3,53.4l-5.2-8.4c-0.9,0.5-1.9,0.9-3,1.2l1.8,9.7C196.2,55.4,198.4,54.5,200.3,53.4"/>
<defs>
	<filter id="Adobe_OpacityMaskFilter_10_" filterUnits="userSpaceOnUse" x="199.6" y="38.1" width="10.8" height="8.7">
		<feColorMatrix  type="matrix" values="1 0 0 0 0  0 1 0 0 0  0 0 1 0 0  0 0 0 1 0"/>
	</filter>
</defs>
<mask maskUnits="userSpaceOnUse" x="199.6" y="38.1" width="10.8" height="8.7" id="mask-4_26_">
	<g class="st21">
		<polygon id="path-3_26_" class="st1" points="-7.3,63 211.4,63 211.4,5 -7.3,5 		"/>
	</g>
</mask>
<path id="Fill-36" class="st22" d="M200.9,38.1c-0.3,1-0.8,2-1.4,2.8l7.8,5.9c1.3-1.8,2.3-3.9,3-6L200.9,38.1z"/>
<defs>
	<filter id="Adobe_OpacityMaskFilter_11_" filterUnits="userSpaceOnUse" x="185.6" y="46.5" width="6.9" height="9.9">
		<feColorMatrix  type="matrix" values="1 0 0 0 0  0 1 0 0 0  0 0 1 0 0  0 0 0 1 0"/>
	</filter>
</defs>
<mask maskUnits="userSpaceOnUse" x="185.6" y="46.5" width="6.9" height="9.9" id="mask-4_27_">
	<g class="st23">
		<polygon id="path-3_27_" class="st1" points="-7.3,63 211.4,63 211.4,5 -7.3,5 		"/>
	</g>
</mask>
<path id="Fill-37" class="st24" d="M190.8,46.5c-0.6,0.1-1.2,0.1-1.8,0.1c-0.5,0-1,0-1.5-0.1l-1.8,9.7c1.1,0.2,2.2,0.2,3.3,0.2
	c1.2,0,2.5-0.1,3.6-0.3L190.8,46.5z"/>
<defs>
	<filter id="Adobe_OpacityMaskFilter_12_" filterUnits="userSpaceOnUse" x="189.7" y="11.5" width="6.7" height="10.4">
		<feColorMatrix  type="matrix" values="1 0 0 0 0  0 1 0 0 0  0 0 1 0 0  0 0 0 1 0"/>
	</filter>
</defs>
<mask maskUnits="userSpaceOnUse" x="189.7" y="11.5" width="6.7" height="10.4" id="mask-4_28_">
	<g class="st25">
		<polygon id="path-3_28_" class="st1" points="-7.3,63 211.4,63 211.4,5 -7.3,5 		"/>
	</g>
</mask>
<path id="Fill-38" class="st26" d="M189.7,21.3c1.1,0.1,2.1,0.3,3.1,0.6l3.5-9.2c-2.1-0.7-4.3-1.2-6.7-1.3V21.3z"/>
<defs>
	<filter id="Adobe_OpacityMaskFilter_13_" filterUnits="userSpaceOnUse" x="177.8" y="45.2" width="8.3" height="10.8">
		<feColorMatrix  type="matrix" values="1 0 0 0 0  0 1 0 0 0  0 0 1 0 0  0 0 0 1 0"/>
	</filter>
</defs>
<mask maskUnits="userSpaceOnUse" x="177.8" y="45.2" width="8.3" height="10.8" id="mask-4_29_">
	<g class="st27">
		<polygon id="path-3_29_" class="st1" points="-7.3,63 211.4,63 211.4,5 -7.3,5 		"/>
	</g>
</mask>
<path id="Fill-39" class="st28" d="M186,46.4c-1.1-0.3-2.1-0.7-3.1-1.2l-5.2,8.4c2,1.1,4.2,2,6.5,2.5L186,46.4z"/>
<defs>
	<filter id="Adobe_OpacityMaskFilter_14_" filterUnits="userSpaceOnUse" x="181.6" y="11.5" width="6.8" height="10.4">
		<feColorMatrix  type="matrix" values="1 0 0 0 0  0 1 0 0 0  0 0 1 0 0  0 0 0 1 0"/>
	</filter>
</defs>
<mask maskUnits="userSpaceOnUse" x="181.6" y="11.5" width="6.8" height="10.4" id="mask-4_30_">
	<g class="st29">
		<polygon id="path-3_30_" class="st1" points="-7.3,63 211.4,63 211.4,5 -7.3,5 		"/>
	</g>
</mask>
<path id="Fill-40" class="st30" d="M185.1,21.9c1-0.3,2.1-0.5,3.2-0.6v-9.8c-2.4,0.1-4.6,0.5-6.8,1.2L185.1,21.9z"/>
<defs>
	<filter id="Adobe_OpacityMaskFilter_15_" filterUnits="userSpaceOnUse" x="167.5" y="38.1" width="10.9" height="8.9">
		<feColorMatrix  type="matrix" values="1 0 0 0 0  0 1 0 0 0  0 0 1 0 0  0 0 0 1 0"/>
	</filter>
</defs>
<mask maskUnits="userSpaceOnUse" x="167.5" y="38.1" width="10.9" height="8.9" id="mask-4_31_">
	<g class="st31">
		<polygon id="path-3_31_" class="st1" points="-7.3,63 211.4,63 211.4,5 -7.3,5 		"/>
	</g>
</mask>
<path id="Fill-41" class="st32" d="M178.4,41.1c-0.6-0.9-1.1-1.9-1.5-3l-9.4,2.7c0.7,2.3,1.8,4.3,3.1,6.2L178.4,41.1z"/>
<defs>
	<filter id="Adobe_OpacityMaskFilter_16_" filterUnits="userSpaceOnUse" x="174.4" y="13.2" width="9.3" height="10.8">
		<feColorMatrix  type="matrix" values="1 0 0 0 0  0 1 0 0 0  0 0 1 0 0  0 0 0 1 0"/>
	</filter>
</defs>
<mask maskUnits="userSpaceOnUse" x="174.4" y="13.2" width="9.3" height="10.8" id="mask-4_32_">
	<g class="st33">
		<polygon id="path-3_32_" class="st1" points="-7.3,63 211.4,63 211.4,5 -7.3,5 		"/>
	</g>
</mask>
<path id="Fill-42" class="st34" d="M181.1,24c0.8-0.7,1.7-1.2,2.7-1.6l-3.5-9.2c-2.1,0.9-4.1,2.1-5.8,3.5L181.1,24z"/>
<g>
	<g>
		<path d="M78,35h-1.9L75,30.7c0-0.1-0.1-0.5-0.2-0.9c-0.1-0.5-0.2-0.8-0.2-0.9c0,0.2-0.1,0.5-0.2,1c-0.1,0.4-0.2,0.7-0.2,0.9
			L73.2,35h-1.9l-2-8h1.7l1,4.4c0.2,0.8,0.3,1.5,0.4,2.1c0-0.2,0.1-0.5,0.2-1c0.1-0.4,0.2-0.8,0.2-1l1.2-4.5h1.6l1.2,4.5
			c0,0.2,0.1,0.5,0.2,0.9c0.1,0.4,0.1,0.8,0.2,1c0-0.3,0.1-0.6,0.2-1c0.1-0.4,0.2-0.8,0.2-1l1-4.4H80L78,35z"/>
		<path d="M86.5,31.9c0.1,0.9-0.2,1.7-0.8,2.4c-0.6,0.6-1.4,0.9-2.2,0.8c-0.5,0-1.1-0.1-1.6-0.4c-0.4-0.3-0.8-0.7-1-1.1
			c-0.3-0.5-0.4-1.1-0.4-1.7c-0.1-0.8,0.2-1.7,0.8-2.3c0.6-0.6,1.4-0.9,2.2-0.8c0.5,0,1.1,0.1,1.6,0.4c0.4,0.3,0.8,0.6,1,1.1
			C86.4,30.7,86.5,31.3,86.5,31.9z M82.3,31.9c0,0.5,0.1,1,0.3,1.4c0.2,0.4,0.6,0.5,1,0.5c0.4,0.1,0.8-0.1,1-0.5
			c0.2-0.4,0.3-0.9,0.3-1.4c0-0.5-0.1-0.9-0.3-1.4c-0.4-0.5-1.2-0.6-1.8-0.2c-0.1,0-0.1,0.1-0.2,0.2C82.4,30.9,82.3,31.4,82.3,31.9z
			"/>
		<path d="M91.4,28.7c0.2,0,0.4,0,0.6,0.1l-0.1,1.6c-0.2,0-0.3,0-0.5,0c-0.5,0-0.9,0.1-1.2,0.4c-0.3,0.3-0.5,0.7-0.5,1.2V35H88v-6.1
			h1.3l0.2,1h0.1c0.2-0.3,0.5-0.6,0.8-0.8C90.7,28.8,91.1,28.7,91.4,28.7z"/>
		<path d="M94.9,35h-1.7v-8.6h1.7V35z"/>
		<path d="M98.8,35.1c-0.7,0-1.3-0.3-1.7-0.8c-0.4-0.7-0.7-1.5-0.6-2.3c-0.1-0.8,0.2-1.7,0.6-2.4c0.4-0.6,1.1-0.9,1.7-0.8
			c0.7,0,1.4,0.3,1.8,0.9l0,0c-0.1-0.4-0.1-0.8-0.1-1.2v-2h1.7V35H101l-0.3-0.8h-0.1C100.2,34.8,99.5,35.1,98.8,35.1z M99.4,33.7
			c0.4,0,0.7-0.1,0.9-0.4c0.2-0.4,0.4-0.8,0.3-1.3v-0.2c0-0.5-0.1-1-0.3-1.4c-0.2-0.3-0.6-0.5-1-0.4c-0.4,0-0.7,0.2-0.9,0.5
			c-0.2,0.4-0.3,0.9-0.3,1.4c0,0.5,0.1,0.9,0.3,1.4C98.6,33.6,99,33.8,99.4,33.7z"/>
		<path d="M108.7,35H107v-8h4.6v1.4h-2.9v2h2.7v1.4h-2.7V35z"/>
		<path d="M118.5,31.9c0,0.9-0.2,1.7-0.8,2.4c-0.6,0.6-1.4,0.9-2.2,0.8c-0.5,0-1.1-0.1-1.6-0.4c-0.4-0.3-0.8-0.7-1-1.1
			c-0.2-0.5-0.4-1.1-0.4-1.7c-0.1-0.8,0.2-1.7,0.7-2.3c0.6-0.6,1.4-0.9,2.2-0.8c0.5,0,1.1,0.1,1.6,0.4c0.4,0.3,0.8,0.6,1,1.1
			C118.3,30.7,118.4,31.3,118.5,31.9z M114.2,31.9c0,0.5,0.1,1,0.3,1.4c0.4,0.5,1.2,0.6,1.8,0.2c0.1-0.1,0.1-0.1,0.2-0.2
			c0.2-0.4,0.3-0.9,0.3-1.4c0-0.5-0.1-0.9-0.3-1.4c-0.4-0.5-1.2-0.6-1.8-0.2c-0.1,0-0.1,0.1-0.2,0.2
			C114.3,30.9,114.2,31.4,114.2,31.9L114.2,31.9z"/>
		<path d="M125.3,31.9c0,0.9-0.2,1.7-0.8,2.4c-0.6,0.6-1.4,0.9-2.2,0.8c-0.5,0-1.1-0.1-1.6-0.4c-0.4-0.3-0.8-0.7-1-1.1
			c-0.2-0.5-0.4-1.1-0.4-1.7c-0.1-0.9,0.2-1.7,0.8-2.3c0.6-0.6,1.4-0.9,2.2-0.8c0.5,0,1.1,0.1,1.6,0.4c0.4,0.3,0.8,0.6,1,1.1
			C125.2,30.7,125.3,31.3,125.3,31.9z M121.1,31.9c0,0.5,0.1,1,0.3,1.4c0.4,0.5,1.2,0.6,1.8,0.2c0.1-0.1,0.1-0.1,0.2-0.2
			c0.2-0.4,0.3-0.9,0.3-1.4c0-0.5-0.1-0.9-0.3-1.4c-0.5-0.5-1.3-0.6-1.8-0.2c-0.1,0-0.1,0.1-0.2,0.2C121.1,30.9,121,31.4,121.1,31.9
			z"/>
		<path d="M128.6,35.1c-0.7,0-1.3-0.3-1.7-0.8c-0.5-0.7-0.7-1.5-0.6-2.3c0-0.8,0.2-1.7,0.6-2.4c0.4-0.5,1-0.9,1.7-0.8
			c0.7,0,1.4,0.3,1.8,0.9h0.1c-0.1-0.4-0.1-0.8-0.1-1.2v-2h1.7V35h-1.4l-0.3-0.8h-0.1C129.9,34.7,129.3,35.1,128.6,35.1z
			 M129.2,33.7c0.4,0,0.7-0.1,0.9-0.4c0.2-0.4,0.3-0.8,0.3-1.3v-0.2c0-0.5-0.1-1-0.3-1.4c-0.2-0.3-0.6-0.5-1-0.4
			c-0.4,0-0.7,0.2-0.9,0.5c-0.2,0.4-0.3,0.9-0.3,1.4c0,0.5,0.1,0.9,0.3,1.4C128.4,33.6,128.8,33.8,129.2,33.7L129.2,33.7z"/>
	</g>
	<g>
		<path d="M75.7,41.4c0.1,0.8-0.2,1.5-0.8,2c-0.7,0.5-1.5,0.7-2.3,0.7h-0.7V47h-1.7v-8h2.6c0.8-0.1,1.6,0.2,2.2,0.6
			C75.4,40,75.7,40.7,75.7,41.4z M71.8,42.7h0.6c0.4,0,0.8-0.1,1.2-0.3c0.3-0.2,0.4-0.6,0.4-0.9c0-0.3-0.1-0.7-0.3-0.9
			c-0.3-0.2-0.7-0.3-1-0.3h-0.8V42.7z"/>
		<path d="M80.1,40.7c0.2,0,0.4,0,0.6,0l-0.1,1.6c-0.2,0-0.3,0-0.5,0c-0.5,0-0.9,0.1-1.3,0.4c-0.3,0.3-0.5,0.7-0.4,1.2V47h-1.7v-6.1
			H78l0.2,1h0.1c0.2-0.3,0.5-0.6,0.8-0.8C79.4,40.8,79.7,40.7,80.1,40.7z"/>
		<path d="M87.1,43.9c0.1,0.9-0.2,1.7-0.8,2.3c-0.6,0.6-1.4,0.9-2.2,0.8c-0.5,0-1.1-0.1-1.6-0.4c-0.4-0.3-0.8-0.6-1-1.1
			c-0.3-0.5-0.4-1.1-0.4-1.7c0-0.9,0.2-1.7,0.8-2.3c0.6-0.6,1.4-0.9,2.2-0.8c0.5,0,1.1,0.1,1.6,0.4c0.4,0.3,0.8,0.6,1,1.1
			C87,42.7,87.1,43.3,87.1,43.9z M82.9,43.9c0,0.5,0.1,1,0.3,1.4c0.2,0.3,0.6,0.5,1,0.5c0.4,0,0.8-0.1,1-0.5c0.4-0.9,0.4-1.9,0-2.8
			c-0.5-0.5-1.3-0.6-1.8-0.1c-0.1,0-0.1,0.1-0.1,0.1C83,42.9,82.8,43.4,82.9,43.9z"/>
		<path d="M93.6,40.8v0.8l-1,0.2c0.2,0.3,0.3,0.6,0.3,0.9c0,0.6-0.2,1.2-0.7,1.5c-0.6,0.4-1.2,0.6-1.9,0.6H90h-0.2
			c-0.2,0.1-0.2,0.3-0.3,0.4c0,0.2,0.3,0.4,0.9,0.4h1c0.6,0,1.1,0.1,1.5,0.4c0.4,0.3,0.6,0.8,0.5,1.3c0,0.7-0.3,1.3-0.9,1.7
			c-0.8,0.4-1.7,0.6-2.6,0.6c-0.7,0-1.4-0.1-2-0.5c-0.4-0.3-0.7-0.7-0.7-1.3c0-0.3,0.1-0.7,0.3-0.9c0.3-0.3,0.6-0.5,1-0.5
			c-0.2-0.1-0.3-0.2-0.5-0.4c-0.3-0.3-0.3-0.8,0-1.1c0.2-0.2,0.4-0.3,0.6-0.5c-0.3-0.1-0.6-0.4-0.8-0.7c-0.2-0.3-0.3-0.7-0.3-1.1
			c0-0.6,0.2-1.2,0.7-1.6c0.5-0.4,1.2-0.6,1.9-0.5c0.2,0,0.4,0,0.6,0c0.2,0,0.3,0,0.5,0.1L93.6,40.8z M88.8,47.8
			c0,0.2,0.1,0.4,0.3,0.5c0.3,0.2,0.6,0.2,0.9,0.2c0.5,0,1-0.1,1.4-0.2c0.3-0.1,0.5-0.4,0.5-0.7c0-0.2-0.1-0.4-0.3-0.5
			c-0.3-0.1-0.6-0.2-0.9-0.1h-0.9c-0.3,0-0.5,0.1-0.8,0.2C89,47.4,88.8,47.6,88.8,47.8z M89.5,42.8c0,0.3,0.1,0.6,0.2,0.8
			c0.4,0.4,1,0.4,1.4,0c0.2-0.2,0.2-0.5,0.2-0.8c0-0.7-0.3-1.1-0.9-1.1C89.8,41.7,89.5,42.1,89.5,42.8z"/>
		<path d="M97.8,40.7c0.2,0,0.4,0,0.6,0l-0.1,1.6c-0.2,0-0.3,0-0.5,0c-0.5,0-0.9,0.1-1.2,0.4C96.2,43,96,43.4,96,43.9V47h-1.7v-6.1
			h1.3l0.2,1h0.1c0.2-0.3,0.4-0.6,0.8-0.8C97,40.8,97.4,40.7,97.8,40.7z"/>
		<path d="M103,47l-0.3-0.8l0,0c-0.2,0.3-0.5,0.6-0.9,0.7c-0.4,0.1-0.8,0.2-1.2,0.2c-0.5,0-1-0.2-1.4-0.5c-0.4-0.4-0.5-0.9-0.5-1.4
			c0-0.6,0.2-1.1,0.7-1.4c0.6-0.4,1.3-0.5,2-0.5h1v-0.3c0.1-0.5-0.3-0.9-0.7-0.9c-0.1,0-0.2,0-0.2,0c-0.6,0-1.2,0.2-1.7,0.4
			l-0.6-1.1c0.7-0.4,1.5-0.6,2.4-0.6c0.7,0,1.3,0.1,1.9,0.5c0.5,0.4,0.7,1,0.7,1.6V47L103,47z M102.5,44.1h-0.7
			c-0.4,0-0.8,0.1-1.1,0.3c-0.2,0.2-0.4,0.4-0.4,0.7c0,0.5,0.3,0.7,0.8,0.7c0.3,0,0.7-0.1,0.9-0.3c0.2-0.2,0.4-0.6,0.4-0.9
			L102.5,44.1z"/>
		<path d="M111,47h-1.7v-3.6c0-0.4,0-0.7-0.2-1c-0.2-0.2-0.4-0.4-0.7-0.3c-0.4,0-0.7,0.2-0.9,0.5c-0.2,0.5-0.3,1-0.3,1.6v2.9h-1.7
			v-6.1h1.3l0.2,0.8h0.1c0.2-0.3,0.4-0.5,0.7-0.7c0.3-0.2,0.7-0.2,1-0.2c0.7-0.1,1.5,0.3,1.9,0.9h0.2c0.2-0.3,0.4-0.5,0.7-0.7
			c0.3-0.2,0.7-0.2,1.1-0.2c0.6,0,1.1,0.1,1.6,0.5c0.4,0.5,0.6,1.1,0.5,1.7v4h-1.7v-3.6c0-0.4,0-0.7-0.2-1c-0.2-0.2-0.4-0.4-0.7-0.3
			c-0.4,0-0.7,0.1-0.9,0.4c-0.2,0.4-0.3,0.9-0.3,1.4L111,47z"/>
		<path d="M121.8,47h-1.7v-3.6c0-0.4-0.1-0.7-0.2-1c-0.2-0.2-0.4-0.4-0.7-0.3c-0.4,0-0.7,0.2-0.9,0.5c-0.2,0.5-0.3,1-0.3,1.6v2.9
			h-1.6v-6.1h1.3l0.2,0.8h0.1c0.2-0.3,0.4-0.5,0.7-0.7c0.3-0.2,0.7-0.2,1.1-0.2c0.7-0.1,1.5,0.3,1.9,0.9h0.2
			c0.2-0.3,0.4-0.5,0.7-0.7c0.3-0.2,0.7-0.2,1.1-0.2c0.6,0,1.2,0.1,1.6,0.5c0.4,0.5,0.6,1.1,0.5,1.7v4H124v-3.6c0-0.4-0.1-0.7-0.2-1
			c-0.2-0.2-0.4-0.4-0.7-0.3c-0.4,0-0.7,0.1-0.9,0.4c-0.2,0.4-0.3,0.9-0.3,1.4L121.8,47z"/>
		<path d="M129.8,47c-0.9,0-1.7-0.2-2.3-0.8c-0.6-0.6-0.9-1.5-0.8-2.3c-0.1-0.9,0.2-1.7,0.8-2.4c1.2-1.1,2.9-1.1,4.2-0.1
			c0.5,0.6,0.8,1.3,0.7,2v0.8h-4c0,0.4,0.2,0.8,0.4,1.1c0.3,0.3,0.7,0.4,1.1,0.4c0.3,0,0.7,0,1-0.1c0.4-0.1,0.7-0.2,1-0.4v1.3
			c-0.3,0.1-0.6,0.3-0.9,0.3C130.6,47,130.2,47,129.8,47z M129.6,41.9c-0.3,0-0.6,0.1-0.8,0.3c-0.2,0.3-0.3,0.6-0.3,1h2.4
			c0-0.4-0.1-0.7-0.3-1C130.2,42,129.9,41.9,129.6,41.9z"/>
	</g>
	<g>
		<path d="M75.2,14.3v4.3c0,0.7-0.2,1.3-0.7,1.8C74,20.8,73.4,21,72.7,21c-0.7,0-1.3-0.2-1.8-0.6c-0.4-0.5-0.7-1.1-0.6-1.8v-4.2H71
			v4.3c0,0.5,0.1,0.9,0.5,1.3c0.4,0.3,0.8,0.5,1.3,0.4c0.5,0,0.9-0.1,1.3-0.5c0.3-0.3,0.5-0.8,0.5-1.3v-4.3H75.2z"/>
		<path d="M80.2,20.8v-3.2c0-0.3-0.1-0.6-0.3-0.9c-0.2-0.2-0.5-0.3-0.9-0.3c-0.4,0-0.8,0.1-1.1,0.4c-0.3,0.4-0.4,0.9-0.4,1.4v2.6
			h-0.7v-4.9h0.6l0.1,0.7l0,0c0.2-0.2,0.4-0.4,0.6-0.6c0.3-0.1,0.6-0.2,0.9-0.2c0.5,0,1,0.1,1.3,0.4c0.3,0.4,0.5,0.9,0.5,1.4v3.2
			L80.2,20.8z"/>
		<path d="M82.3,14.6c0-0.1,0-0.3,0.1-0.4c0.1-0.1,0.2-0.1,0.3-0.1c0.1,0,0.2,0,0.3,0.1c0.1,0.1,0.1,0.2,0.1,0.4
			c0,0.1,0,0.3-0.1,0.4c-0.1,0.1-0.2,0.1-0.3,0.1c-0.1,0-0.2,0-0.3-0.1C82.4,14.8,82.3,14.7,82.3,14.6z M83.1,20.8h-0.7v-4.9h0.7
			V20.8z"/>
		<path d="M86.3,20.3c0.1,0,0.3,0,0.4,0l0.3-0.1v0.6c-0.1,0.1-0.2,0.1-0.4,0.1c-0.1,0-0.3,0-0.4,0c-1,0-1.4-0.5-1.4-1.5v-2.9h-0.7
			v-0.4l0.7-0.3l0.3-1h0.4v1.1H87v0.6h-1.4v2.9c0,0.2,0.1,0.5,0.2,0.7C85.9,20.3,86.1,20.3,86.3,20.3z"/>
		<path d="M90,20.9c-0.6,0-1.3-0.2-1.7-0.7c-0.4-0.5-0.7-1.2-0.6-1.9c0-0.7,0.2-1.4,0.6-1.9c0.4-0.5,1-0.7,1.6-0.7
			c0.6,0,1.1,0.2,1.5,0.6c0.4,0.5,0.6,1,0.5,1.6v0.5h-3.4c0,0.5,0.1,0.9,0.4,1.3c0.3,0.3,0.7,0.5,1.2,0.4c0.5,0,1.1-0.1,1.6-0.3v0.7
			c-0.2,0.1-0.5,0.2-0.8,0.2C90.6,20.9,90.3,20.9,90,20.9z M89.8,16.4c-0.4,0-0.7,0.1-0.9,0.4c-0.2,0.3-0.4,0.6-0.4,1H91
			c0-0.4-0.1-0.8-0.3-1.1C90.4,16.5,90.1,16.4,89.8,16.4z"/>
		<path d="M96.4,20.2L96.4,20.2c-0.4,0.5-0.9,0.8-1.6,0.7c-0.6,0-1.1-0.2-1.5-0.7c-0.4-0.5-0.6-1.2-0.6-1.9c0-0.7,0.2-1.3,0.5-1.9
			c0.8-0.8,2.1-0.9,2.9-0.1c0.1,0.1,0.1,0.1,0.2,0.2l0,0v-0.4v-2.4h0.7v7h-0.6L96.4,20.2z M94.9,20.3c0.4,0,0.8-0.1,1.1-0.4
			c0.3-0.4,0.4-0.9,0.3-1.3v-0.1c0-0.5-0.1-1-0.3-1.5c-0.3-0.3-0.7-0.5-1.1-0.5c-0.4,0-0.8,0.2-1,0.5c-0.3,0.4-0.4,0.9-0.3,1.4
			c0,0.5,0.1,1,0.3,1.4C94.1,20.1,94.5,20.3,94.9,20.3z"/>
		<path d="M106.1,20.8h-0.9l-3.6-5.5l0,0c0,0.6,0.1,1.2,0.1,1.8v3.7H101v-6.5h0.9l3.6,5.5l0,0c0-0.1,0-0.3,0-0.8c0-0.4,0-0.8,0-0.9
			v-3.8h0.7L106.1,20.8z"/>
		<path d="M110.7,20.8l-0.1-0.7l0,0c-0.2,0.3-0.4,0.5-0.7,0.6c-0.3,0.1-0.6,0.2-0.9,0.2c-0.4,0-0.8-0.1-1.1-0.4
			c-0.3-0.3-0.4-0.7-0.4-1.1c0-1,0.8-1.5,2.4-1.6h0.8v-0.3c0-0.3-0.1-0.6-0.2-0.9c-0.2-0.2-0.5-0.3-0.8-0.3c-0.5,0-1,0.1-1.4,0.4
			l-0.2-0.6c0.3-0.1,0.5-0.2,0.8-0.3c0.3-0.1,0.6-0.1,0.9-0.1c0.5,0,0.9,0.1,1.3,0.4c0.3,0.3,0.5,0.8,0.4,1.3v3.4L110.7,20.8z
			 M109,20.3c0.4,0,0.8-0.1,1.1-0.4c0.3-0.3,0.4-0.6,0.4-1v-0.5h-0.7c-0.4,0-0.9,0.1-1.3,0.3c-0.3,0.2-0.4,0.5-0.4,0.8
			c0,0.2,0.1,0.5,0.2,0.6C108.5,20.2,108.8,20.3,109,20.3z"/>
		<path d="M114.4,20.3c0.1,0,0.3,0,0.4,0l0.3-0.1v0.6c-0.1,0-0.2,0.1-0.4,0.1c-0.1,0-0.3,0-0.4,0c-1,0-1.4-0.5-1.4-1.5v-2.9h-0.7
			v-0.4l0.7-0.3l0.3-1h0.4v1.1h1.4v0.6h-1.4v2.9c0,0.2,0.1,0.5,0.2,0.7C113.9,20.2,114.1,20.3,114.4,20.3z"/>
		<path d="M116,14.6c0-0.1,0-0.3,0.1-0.4c0.1-0.1,0.2-0.1,0.3-0.1c0.1,0,0.2,0,0.3,0.1c0.1,0.1,0.1,0.2,0.1,0.4c0,0.1,0,0.3-0.1,0.4
			c-0.1,0.1-0.2,0.1-0.3,0.1c-0.1,0-0.2,0-0.3-0.1C116,14.8,116,14.7,116,14.6z M116.8,20.8H116v-4.9h0.7V20.8z"/>
		<path d="M122.5,18.4c0,0.7-0.2,1.4-0.6,1.9c-0.4,0.5-1,0.7-1.7,0.7c-0.4,0-0.8-0.1-1.2-0.3c-0.3-0.2-0.6-0.5-0.8-0.9
			c-0.2-0.4-0.3-0.9-0.3-1.4c0-0.7,0.2-1.3,0.6-1.9c0.4-0.5,1-0.7,1.7-0.7c0.6,0,1.2,0.2,1.6,0.7C122.4,17.1,122.6,17.7,122.5,18.4z
			 M118.8,18.4c0,0.5,0.1,1,0.4,1.4c0.6,0.6,1.5,0.7,2.1,0.1c0,0,0.1-0.1,0.1-0.1c0.3-0.4,0.4-0.9,0.4-1.4c0-0.5-0.1-1-0.4-1.4
			c-0.3-0.3-0.7-0.5-1.1-0.5c-0.4,0-0.8,0.2-1.1,0.5C118.9,17.4,118.7,17.9,118.8,18.4z"/>
		<path d="M127.2,20.8v-3.2c0-0.3-0.1-0.6-0.3-0.9c-0.2-0.2-0.5-0.3-0.9-0.3c-0.4,0-0.8,0.1-1.1,0.4c-0.3,0.4-0.4,0.9-0.4,1.4v2.6
			h-0.7v-4.9h0.6l0.1,0.7l0,0c0.2-0.2,0.4-0.4,0.6-0.6c0.3-0.1,0.6-0.2,0.9-0.2c0.5,0,1,0.1,1.3,0.4c0.3,0.4,0.5,0.9,0.5,1.4v3.2
			L127.2,20.8z"/>
		<path d="M132.6,19.5c0,0.4-0.2,0.8-0.5,1c-0.4,0.3-0.9,0.4-1.4,0.4c-0.5,0-1.1-0.1-1.5-0.3v-0.7c0.2,0.1,0.5,0.2,0.8,0.3
			c0.3,0.1,0.5,0.1,0.8,0.1c0.3,0,0.6,0,0.9-0.2c0.2-0.1,0.3-0.3,0.3-0.6c0-0.2-0.1-0.4-0.3-0.5c-0.3-0.2-0.7-0.4-1-0.5
			c-0.4-0.1-0.7-0.3-1-0.5c-0.2-0.1-0.3-0.3-0.4-0.4c-0.1-0.2-0.1-0.4-0.1-0.6c0-0.4,0.2-0.7,0.5-1c0.4-0.3,0.9-0.4,1.4-0.3
			c0.5,0,1.1,0.1,1.6,0.3l-0.3,0.6c-0.4-0.2-0.9-0.3-1.4-0.3c-0.3,0-0.6,0-0.8,0.2c-0.3,0.2-0.3,0.5-0.2,0.8c0,0,0,0,0,0
			c0.1,0.1,0.2,0.2,0.3,0.3c0.3,0.1,0.6,0.3,0.9,0.4c0.4,0.1,0.8,0.3,1.2,0.6C132.4,18.8,132.5,19.2,132.6,19.5z"/>
	</g>
	<path d="M50.8,14.2C50.8,14.2,50.8,14.3,50.8,14.2c2.3,1.6,2.1,3,6.5,6.2c0,0,0,0,0,0C56.4,17,54,14.3,50.8,14.2z"/>
	<path d="M56.9,15.8C56.9,15.8,56.8,15.9,56.9,15.8c0.7,1.3,1,2.7,1.3,4.1l0.7,3.4c0,0,0,0,0,0c-0.6-1-3.5-2.5-5.4-3.9
		c0,0-0.1,0-0.1,0c1.1,3.1,4.5,4.5,6.6,6.8c0,0,0.1,0,0.1,0C60,22.8,60.5,18.7,56.9,15.8z"/>
	<path d="M63.1,26.7c-0.1-2.2-0.6-4.2-2-6c0,0-0.1,0-0.1,0c0.9,3.4-0.1,6.4,0.3,9c0,0,0,0-0.1,0c-0.9-2.3-3.5-3.4-4.7-5
		c0,0-0.1,0-0.1,0c1.1,4.6,4.5,6,5.1,8.4c0,0,0.1,0,0.1,0C62.2,31.4,63.2,29.4,63.1,26.7z"/>
	<path d="M64.3,29.2C64.3,29.2,64.2,29.2,64.3,29.2c-0.2,3.4-2.1,6-2.5,8.3c0,0,0,0,0,0c-0.1-3-2.2-4.8-3.5-7.1c0,0-0.1,0-0.1,0
		c-0.2,4.3,3,7.1,2.9,10.7c0,0,0.1,0.1,0.1,0C63.6,37.7,65.9,33.6,64.3,29.2z"/>
	<path d="M65.1,38.2C65.1,38.1,65,38.1,65.1,38.2c-1.6,3-3.4,3.7-5.7,7.1c0,0,0,0,0,0c0.9-2.7-0.6-6.3-0.6-8.7c0,0-0.1-0.1-0.1,0
		c-1.8,4.4,0.1,8.9-1.5,11.9c0,0,0,0.1,0,0.1c2.3-1.1,4.4-2.8,6.1-4.9C64.3,42,65.2,40.3,65.1,38.2z"/>
	<path d="M62.8,46.3c-1.6,2.2-5.1,3-8.6,5.8c0,0,0,0,0,0c1.8-2.3,1.6-5.5,2.2-8.3c0,0,0-0.1-0.1,0c-3.4,3.8-2.9,8-4.4,9.9
		c0,0,0,0.1,0,0.1C57,53.7,62.5,49.2,62.8,46.3C62.9,46.3,62.8,46.3,62.8,46.3z"/>
	<path d="M58,54c-4.5,2-6.3,0.9-10.5,1.7c0,0,0,0,0,0c3-1.6,3.5-4.2,4.6-5.9c0,0,0-0.1-0.1-0.1c-3.3,1.6-4.3,5.3-8.3,6.2
		c0,0,0,0.1,0,0.1c1.6,0.4,2.9,1.1,4.6,1.3C53.1,57.6,56.6,56.1,58,54C58.1,54,58,53.9,58,54z"/>
	<path d="M21.3,14.2c-3.2,0.1-5.5,2.8-6.5,6.2c0,0,0,0,0,0C19.2,17.2,19,15.9,21.3,14.2C21.4,14.3,21.4,14.2,21.3,14.2z"/>
	<path d="M18.7,19.4c-1.9,1.5-4.8,2.9-5.4,3.9c0,0,0,0,0,0l0.7-3.4c0.3-1.4,0.6-2.8,1.4-4.1c0,0,0-0.1-0.1-0.1
		c-3.6,2.8-3.1,7-3.2,10.3c0,0,0,0.1,0.1,0C14.2,23.9,17.6,22.6,18.7,19.4C18.7,19.4,18.7,19.4,18.7,19.4z"/>
	<path d="M15.5,24.8c-1.1,1.6-3.7,2.7-4.7,5c0,0-0.1,0,0,0c0.4-2.6-0.6-5.6,0.3-9c0,0,0-0.1-0.1,0c-1.4,1.7-1.9,3.8-2,6
		c-0.1,2.7,0.9,4.7,1.3,6.5c0,0,0.1,0,0.1,0C11.2,30.8,14.5,29.4,15.5,24.8C15.6,24.8,15.6,24.7,15.5,24.8z"/>
	<path d="M14,30.4C14,30.4,13.9,30.4,14,30.4c-1.3,2.3-3.5,4.1-3.5,7.1c0,0,0,0,0,0C10,35.2,8,32.6,8,29.2c0-0.1-0.1-0.1-0.1,0
		c-1.6,4.4,0.7,8.5,3.2,11.9c0,0,0.1,0,0.1,0C11,37.5,14.2,34.8,14,30.4z"/>
	<path d="M15.1,48.4c-1.6-3,0.3-7.5-1.5-11.9c0,0-0.1,0-0.1,0c-0.1,2.4-1.5,6-0.6,8.7c0,0,0,0,0,0c-2.3-3.3-4.1-4-5.6-7.1
		c0,0-0.1,0-0.1,0C7,40.3,7.9,42,9,43.5C10.6,45.7,12.8,47.4,15.1,48.4C15.1,48.5,15.1,48.5,15.1,48.4z"/>
	<path d="M20.3,53.6c-1.5-1.9-1.1-6.1-4.4-9.9c0,0-0.1,0-0.1,0c0.6,2.8,0.5,6,2.2,8.3c0,0,0,0,0,0c-3.5-2.7-7-3.5-8.6-5.8
		c0,0-0.1,0-0.1,0C9.7,49.2,15.2,53.7,20.3,53.6C20.3,53.7,20.3,53.6,20.3,53.6z"/>
	<path d="M28.5,55.9c-3.9-0.9-5-4.6-8.3-6.2c0,0-0.1,0-0.1,0.1c1,1.7,1.6,4.3,4.6,5.9c0,0,0,0.1,0,0c-4.3-0.8-6.1,0.3-10.5-1.7
		c0,0-0.1,0-0.1,0.1c1.5,2.1,5,3.6,9.7,3.2C25.6,57.1,26.8,56.3,28.5,55.9C28.5,55.9,28.5,55.9,28.5,55.9z"/>
	<path d="M53.2,58.5c-1.5,0.6-3.5,0.7-5.2,0.2c-3.7-1.2-7.9-3.4-11.9-1.5c-4-1.8-8.2,0.4-11.9,1.5c-1.6,0.4-3.6,0.4-5.2-0.2
		c0,0-0.1,0,0,0.1c2.2,1.7,5.3,2.5,8.1,1.5c2.7-0.8,4.9-3.7,8.1-2.5c-2.5,1-4.9,2.8-6.7,4.5l1.3,1.1c1.6-1.9,3.5-3.8,5.6-5
		c0.3-0.2,0.5-0.2,0.7-0.2c0.2,0,0.4,0.1,0.7,0.2c2.1,1.2,4,3.1,5.6,5l1.3-1.1c-1.8-1.7-4.2-3.5-6.7-4.5c3.2-1.2,5.4,1.6,8.1,2.5
		C47.9,61,51,60.2,53.2,58.5C53.2,58.5,53.2,58.4,53.2,58.5z"/>
	<path d="M37.9,48.1h-6.1c-0.4,0-0.8,0-1.1-0.1c0,0,0,0,0,0c1,1.5,2.6,2.6,4.2,3.4c0.2,1.4,0.6,2.6,0.7,2.7c0.1,0.1,1.7-0.4,1.7-0.5
		c0-0.1-0.6-2.5-0.6-2.5C37.4,49.7,37.6,48.8,37.9,48.1z"/>
	<path d="M48.5,16.5c-0.2-0.1-0.6,1.1-1.2,1.4C47.1,18,47,18.1,47,18.2c-0.1,0.1-0.1,0.3-0.1,0.4c0,0.1,0.1,0.2,0.2,0.3
		c0.1,0.1,0.2,0.1,0.3,0c0.1-0.1,0.2-0.2,0.3-0.3c0.1-0.1,0.1-0.3,0.1-0.4C47.7,17.5,48.6,16.6,48.5,16.5z"/>
	<path d="M48.9,18.2c-0.1-0.1-0.8,1.1-1.5,1c-0.1,0-0.3,0-0.4,0c-0.1,0-0.1,0.1-0.2,0.1c0,0,0-0.1,0-0.1c0-0.2-0.1-0.3-0.2-0.4
		c-0.5-0.6,0.2-1.9,0.1-1.9c-0.1,0-0.3,1.3-0.7,1.9c-0.1,0.1-0.1,0.3-0.1,0.4c0,0.2,0.1,0.3,0.2,0.4c0.1,0.1,0.2,0.2,0.3,0.1
		c0.1,0,0.2-0.1,0.2-0.1c0,0.1,0,0.1,0,0.2c0.1,0.1,0.2,0.2,0.3,0.2c0.1,0,0.3,0,0.4,0c0.1-0.1,0.2-0.2,0.3-0.3
		C48,19.2,49,18.3,48.9,18.2z"/>
	<path d="M48.6,19.7c-0.1-0.1-1.1,1.1-1.8,0.8c-0.1-0.1-0.3-0.1-0.5,0c-0.1,0-0.2,0.1-0.2,0.1c0,0,0-0.1,0-0.1
		c0-0.2-0.1-0.3-0.3-0.4c-0.6-0.5-0.1-2.1-0.3-2.1c-0.1,0-0.1,1.5-0.4,2.3c-0.1,0.1-0.1,0.3,0,0.5c0,0.2,0.1,0.3,0.3,0.4
		c0.1,0.1,0.3,0.1,0.4,0.1c0.1,0,0.1,0,0.2-0.1c0,0,0,0,0,0c0,0.1,0.1,0.3,0.3,0.3c0.1,0.1,0.3,0.1,0.5,0c0.2,0,0.3-0.1,0.4-0.3
		C47.5,20.6,48.7,19.9,48.6,19.7z"/>
	<path d="M46.1,22c-0.1-0.1-0.3-0.1-0.5,0c-0.1,0-0.2,0.1-0.3,0.2c0-0.1,0-0.2,0-0.4c0-0.2-0.1-0.4-0.3-0.5
		c-0.6-0.6-0.2-2.3-0.3-2.4c-0.1,0-0.1,1.7-0.4,2.6c-0.1,0.2-0.1,0.3,0,0.5c0,0.2,0.1,0.4,0.3,0.5c0.1,0.1,0.3,0.1,0.4,0.1
		c0,0,0.1,0,0.1,0c0,0,0,0,0,0.1c0,0.1,0.1,0.3,0.3,0.3c0.1,0.1,0.3,0.1,0.5,0c0.2,0,0.3-0.1,0.4-0.3c0.6-0.6,1.8-1.5,1.8-1.7
		C48,20.9,46.9,22.2,46.1,22z"/>
	<path d="M39.3,25.5c0.7-1.1,1.7-1.9,2.5-2.9c0,0,0-0.1,0-0.1c0,0-0.1,0-0.1,0c-0.2,0.2-0.4,0.4-0.6,0.6c-0.1,0-0.3,0-0.5,0.2
		c-0.2,0.1-0.3,0.3-0.4,0.4c-0.1,0-0.3,0.1-0.5,0.4c-0.2,0.2-0.3,0.4-0.3,0.6c-0.1,0-0.3,0.2-0.5,0.4c-0.1,0.2-0.2,0.3-0.2,0.5
		c-0.1,0.1-0.2,0.2-0.3,0.4c-0.1,0.2-0.2,0.5-0.2,0.6c0,0.1-0.1,0.1-0.1,0.2c0,0,0-0.1,0-0.1c0.2-1.5,0.5-3.1,0.9-4.6
		c0.4-1.5,1-3,1.8-4.2l0,0c0-0.1,0-0.2,0-0.2c-0.1-0.1-0.2-0.1-0.2,0c-0.3,0.3-0.6,0.7-0.8,1.1c-0.1-0.1-0.3,0.1-0.5,0.5
		c-0.2,0.3-0.2,0.5-0.1,0.6c0,0,0,0,0,0c-0.1,0-0.3,0.2-0.4,0.5c-0.1,0.3-0.1,0.6-0.1,0.7c0,0,0,0,0,0c-0.1,0-0.3,0.2-0.4,0.6
		c-0.1,0.3-0.1,0.6,0,0.7c0,0,0,0,0,0c-0.1,0-0.3,0.2-0.4,0.6c-0.1,0.4-0.1,0.7,0,0.8c-0.1,0-0.3,0.3-0.4,0.7
		c-0.1,0.3-0.1,0.6,0,0.7c-0.1,0-0.2,0.3-0.3,0.7c-0.1,0.4,0,0.6,0.1,0.7c-0.1,0.1-0.2,0.3-0.3,0.7c0,0.4,0,0.6,0.1,0.7
		c-0.1,0.1-0.2,0.3-0.2,0.6c0,0.3,0,0.5,0,0.7c-0.1,0.1-0.2,0.4-0.2,0.7c0,0.3,0,0.5,0.1,0.6c-0.1,0.1-0.1,0.3-0.1,0.6
		c0,0.3,0,0.5,0.1,0.7c0,1,0,2.1,0,3.1h2.2c0-0.8,0.1-1.6,0.1-2.4c0.2-1.4,0.4-2.8,1.1-4l0,0c0,0,0-0.1,0-0.1c0,0-0.1,0-0.1,0
		c-0.9,1.1-1.3,2.6-1.6,4c0,0.3-0.1,0.6-0.1,0.8c0.1-1.1,0.2-2.3,0.4-3.3c0.3-1.3,0.9-2.6,2-3.3c0,0,0.1-0.1,0-0.1
		c0-0.1-0.1-0.1-0.1-0.1c-0.1,0-0.1,0.1-0.2,0.1c-0.1-0.1-0.4,0-0.6,0.2c-0.3,0.2-0.5,0.4-0.4,0.5c0,0,0,0,0,0c0,0,0,0,0,0
		c-0.1-0.1-0.4,0.1-0.6,0.4c-0.2,0.3-0.3,0.7-0.2,0.7c0,0,0,0,0,0c-0.1,0-0.3,0.2-0.4,0.6c-0.1,0.3-0.1,0.5-0.1,0.7c0,0,0,0,0,0
		c-0.1,0.3-0.2,0.6-0.2,0.9c0-0.4,0.1-0.9,0.1-1.3C38.3,27.9,38.6,26.6,39.3,25.5z"/>
	<path d="M44.8,31.7c-0.1-0.1-0.2-0.1-0.2,0c-1.2,1.3-1.9,2.6-2.2,3.1h0.7c0.4-0.8,1.2-2.3,1.7-2.9l0,0
		C44.8,31.9,44.9,31.8,44.8,31.7z"/>
	<path d="M43.8,53.1L43.8,53.1c-0.2-0.6-0.5-1.2-0.8-1.8c-0.3-0.6-0.5-1.2-0.7-1.8c-0.2-0.5-0.4-1-0.5-1.5h-0.7
		c0.2,0.6,0.4,1.2,0.7,1.7c0.5,1.2,1.1,2.4,1.8,3.5c0,0,0.1,0.1,0.1,0C43.8,53.2,43.8,53.2,43.8,53.1z"/>
	<path d="M43.6,50.5c-0.2-0.7-0.4-1.7-0.5-2.4h-0.7c0.3,0.8,0.6,1.7,1,2.5c0,0.1,0.1,0.1,0.2,0.1C43.6,50.7,43.6,50.6,43.6,50.5z"/>
	<path d="M41.7,52.5l-1.1-4.5h-1.8c0.3,1.1,0.7,2.3,1.2,3.3c0,0.1,0.1,0.1,0.2,0.1c0.1,0,0.2-0.1,0.1-0.2c-0.1-0.9-0.3-1.9-0.4-2.8
		c0.4,1.4,0.9,2.8,1.6,4.1c0,0,0.1,0.1,0.1,0C41.7,52.6,41.8,52.6,41.7,52.5z"/>
	<path d="M51.2,23.6c-0.7-0.2-4.9-0.9-9.7,7.8c0.7-3.3,2.8-7.2,3.4-8.4v0c0-0.1,0-0.1,0-0.2c-0.1,0-0.1,0-0.2,0
		c-3.1,5.3-4.3,8.3-4.9,11.9h2c0.3-3.5,4.7-11.7,9.4-11.1h0C51.2,23.7,51.2,23.7,51.2,23.6C51.3,23.7,51.2,23.6,51.2,23.6z"/>
	<path d="M34,19.2c0,0-0.1-0.1-0.1-0.1c-0.1,0-0.1,0.1-0.1,0.2c1.2,3.3-0.3,4.9-1,7.3c-0.8-1.9,1.8-3.7,0.5-7.1c0,0-0.1-0.1-0.1-0.1
		c-0.1,0-0.1,0-0.1,0.1c0,0.2-0.2,2.1-1.7,3.3c-0.2-0.4-0.4-0.7-0.7-1c-0.1-0.6-0.6-1.5-1.4-1.8c-0.1-0.3-0.4-0.8-0.9-1.1
		c-0.5-0.2-1-0.2-1.7,0.1c-0.7,0.1-1.3,0.4-1.5,0.9c-0.3,0.5-0.2,1-0.1,1.3c-0.6,0.7-0.7,1.7-0.6,2.1c-0.4,0.9-0.2,1.9,0,2.4
		c-0.4,1.2,0,2.4,0.2,2.8c0,0.1,0,0.2,0,0.3c-1.5-1.6-4.8-3.6-6.1-4.3c-0.1,0-0.1,0-0.2,0c-0.1,0.1-0.1,0.2,0,0.2
		c2.8,2.8,5.4,6.2,7.8,13.2c1.2-1.3,3.4-2.9,6.5-2.9h3.6C33.8,26.2,37.1,23.1,34,19.2z M31.9,26c0.3,0.4,0.2,1-0.3,1.1
		c-0.3,0-0.6,0-0.8-0.2c-0.3-0.4-0.2-1.1,0.3-1.1C31.4,25.7,31.7,25.8,31.9,26z M31.1,23.9c0.5,0.2,0.7,0.8,0.3,1.1
		c-0.2,0.2-0.5,0.1-0.8,0.1c-0.5-0.1-0.8-0.8-0.4-1.1C30.5,23.8,30.9,23.8,31.1,23.9z M29.1,25.8c0.4,0,0.8-0.1,1.1,0.3
		c0.3,0.4,0.1,1.1-0.5,1.2c-0.3,0.1-0.7,0.1-1-0.2C28.4,26.7,28.5,25.9,29.1,25.8z M28.2,24.7c-0.2-0.9,1.2-1.2,1.4-0.4
		C29.9,25.2,28.4,25.6,28.2,24.7z M30.2,22.3c0.4,0,0.6,0.6,0.4,0.9c-0.1,0.2-0.4,0.2-0.7,0.2c-0.4-0.1-0.6-0.6-0.4-0.9
		C29.7,22.2,29.9,22.3,30.2,22.3z M29.1,20.7c0.2-0.1,0.5,0,0.6,0.1c0.3,0.3,0.2,0.8-0.2,0.8c-0.2,0-0.5,0-0.6-0.1
		C28.7,21.4,28.7,20.8,29.1,20.7z M29,22.7c0.2,0.7-1,1.1-1.2,0.4C27.6,22.4,28.8,22,29,22.7z M27.2,21.5c-0.2-0.7,0.9-1,1.1-0.4
		C28.5,21.8,27.4,22.2,27.2,21.5z M27.2,24.9c-0.3,0.1-0.6,0.2-0.9-0.1c-0.3-0.3-0.2-0.9,0.2-1.1c0.3-0.1,0.6-0.2,0.9,0.1
		C27.7,24.1,27.7,24.8,27.2,24.9z M27.4,19.4c0.2-0.1,0.5-0.2,0.7,0c0.3,0.2,0.2,0.7-0.1,0.9c-0.2,0.1-0.5,0.2-0.7,0
		C27.1,20,27.1,19.5,27.4,19.4z M27.3,22.6c0.2,0.7-0.9,1-1.1,0.4C26,22.3,27.1,21.9,27.3,22.6z M25.6,21.5c-0.2-0.6,0.9-0.9,1-0.3
		C26.9,21.8,25.8,22.1,25.6,21.5z M25.8,19.7c0.2-0.1,0.5-0.2,0.7,0c0.2,0.2,0.1,0.6-0.1,0.8c-0.2,0.1-0.5,0.1-0.7-0.1
		C25.5,20.2,25.5,19.8,25.8,19.7z M24.9,22.1c0.2-0.1,0.4-0.2,0.6-0.1c0.3,0.1,0.3,0.6,0.1,0.8C25.4,22.9,25.2,23,25,23
		C24.7,22.9,24.6,22.3,24.9,22.1z M24.8,23.8c0.2-0.2,0.4-0.3,0.7-0.2c0.4,0.2,0.4,0.8,0.1,1c-0.2,0.1-0.4,0.2-0.6,0.2
		C24.6,24.7,24.5,24.1,24.8,23.8z M26,25.7c0.4,0.8-0.9,1.7-1.3,0.8C24.3,25.7,25.5,24.9,26,25.7z M24.8,28.4
		c-0.4-0.9,1-1.8,1.5-0.9C26.6,28.4,25.2,29.3,24.8,28.4z M26.3,30.3c-0.1,0-0.1,0.1-0.1,0.1l-0.8-0.9c0,0,0.3-0.2,0.3-0.2
		C26.3,28.9,26.9,30,26.3,30.3z M26.5,26.4c-0.3-1,1.4-1.4,1.6-0.4C28.3,26.9,26.7,27.3,26.5,26.4z M26.7,28.4
		c-0.3-1,1.5-1.5,1.7-0.5C28.7,29,26.9,29.4,26.7,28.4z M27,30.5c-0.3-1,1.5-1.5,1.7-0.5C29,31.1,27.2,31.5,27,30.5z M29,32.4
		c-0.1,0.4-0.4,0.4-0.7,0.5c-0.2-0.3-0.8-0.9-0.8-1c0,0,0-0.1,0-0.1c0-0.1,0.1-0.2,0.2-0.2c0.2-0.1,0.6-0.2,0.8-0.2
		C28.9,31.6,29.1,32.1,29,32.4z M29.4,27.9c0.4-0.1,0.8-0.3,1.2,0.2c0.3,0.4,0.2,1.1-0.3,1.3c-0.4,0.1-0.8,0.2-1.1-0.1
		C28.8,28.9,28.8,28,29.4,27.9z M29.8,30c0.4-0.1,0.8-0.2,1.1,0.1c0.3,0.4,0.2,1.1-0.3,1.2c-0.3,0.1-0.7,0.2-1-0.1
		C29.2,30.9,29.2,30.1,29.8,30z M31.4,33.2c0,0.2-0.3,0.2-0.5,0.3c-0.5,0.2-1,0.1-1.1-0.5c-0.2-0.6,0.3-0.9,0.8-1
		c0.3-0.1,0.6,0,0.7,0.2c0,0.1,0.1,0.1,0.1,0.2C31.5,32.3,31.4,33,31.4,33.2z M31.8,30.4c0,0.1,0,0.2,0,0.3
		c-0.3-0.2-0.4-0.6-0.3-0.9c0.1-0.2,0.3-0.3,0.5-0.3C31.9,29.8,31.8,30.1,31.8,30.4z M32.3,28.2c0,0.1-0.2,0.8-0.2,0.8
		c-0.1,0-0.3,0-0.3,0c-0.4,0-0.8-0.4-0.7-0.9c0.1-0.4,0.4-0.4,0.8-0.4c0.1,0,0.4,0,0.5,0.1C32.4,27.8,32.3,28,32.3,28.2z"/>
	<path d="M50.4,26.9c-0.1-0.2-1,0.8-1.6,0.9c-0.1,0-0.3,0.1-0.4,0.2c-0.1,0.1-0.2,0.2-0.2,0.4c0,0.1,0,0.2,0.1,0.3
		c0.1,0.1,0.2,0.1,0.3,0.1c0.1,0,0.3-0.1,0.4-0.2c0.1-0.1,0.2-0.2,0.2-0.4C49.3,27.6,50.4,27,50.4,26.9z"/>
	<path d="M48.4,29.1C48.3,29,48.2,29,48,29c-0.1,0-0.1,0-0.2,0.1c0,0,0-0.1,0-0.1c0-0.2,0-0.3,0-0.4c-0.2-0.7,0.8-1.7,0.7-1.8
		c-0.1-0.1-0.8,1.1-1.3,1.6c-0.1,0.1-0.2,0.2-0.2,0.4c0,0.2,0,0.3,0,0.4c0.1,0.1,0.1,0.2,0.3,0.3c0.1,0,0.2,0,0.3,0
		c0,0.1,0,0.1,0,0.2c0,0.1,0.1,0.3,0.2,0.3c0.1,0.1,0.2,0.1,0.4,0.1c0.2,0,0.3-0.1,0.4-0.2c0.5-0.5,1.8-1,1.7-1.1
		C50.1,28.6,49,29.5,48.4,29.1z"/>
	<path d="M47.4,30.1c-0.1-0.1-0.2-0.2-0.4-0.2c-0.1,0-0.2,0-0.3,0c0,0,0-0.1,0-0.1c0-0.2,0-0.3-0.1-0.5c-0.4-0.7,0.6-2,0.5-2.1
		c-0.1-0.1-0.7,1.4-1.2,2c-0.1,0.1-0.2,0.3-0.2,0.4c0,0.2,0,0.3,0.1,0.5c0.1,0.1,0.2,0.2,0.3,0.2c0.1,0,0.1,0,0.2,0c0,0,0,0,0,0
		c0,0.2,0,0.3,0.1,0.4c0.1,0.1,0.2,0.2,0.4,0.2c0.2,0,0.3,0,0.4-0.1c0.6-0.5,2.1-0.7,2-0.9C49.4,29.9,48,30.6,47.4,30.1z"/>
	<path d="M46.3,31.2C46.2,31.1,46,31,45.9,31c-0.1,0-0.3,0-0.4,0c0-0.1,0.1-0.2,0.1-0.3c0-0.2,0-0.4-0.1-0.5
		c-0.3-0.8,0.6-2.3,0.5-2.3c-0.1-0.1-0.7,1.6-1.2,2.3c-0.1,0.1-0.2,0.3-0.2,0.5c0,0.2,0,0.4,0.1,0.5c0.1,0.1,0.2,0.2,0.3,0.2
		c0,0,0.1,0,0.1,0c0,0,0,0,0,0.1c0,0.1,0,0.3,0.1,0.4c0.1,0.1,0.3,0.2,0.5,0.2c0.2,0,0.4,0,0.5-0.1c0.7-0.4,2.3-0.8,2.2-0.9
		C48.4,30.9,46.9,31.7,46.3,31.2z"/>
	<path d="M31,38c-2.8,0-5.1,1.2-5.6,1.5c0,0-0.1,0,0,0c0.5-0.7,2.9-3.9,7.1-3.9c1,0,10.7,0,10.7,0c0.6,0,1,0.5,1,1.2
		c0,0.7-0.5,1.2-1,1.2C43.1,38,33.7,38,31,38z"/>
	<path d="M31.8,47.4c-3.5,0-3.7-2.5-8.8-3.1c0,0,0-0.1,0-0.1c4.2-1.1,5.8,0.7,8.2,0.7c1,0,11.9,0,11.9,0c0.6,0,1,0.5,1,1.2
		c0,0.7-0.5,1.2-1,1.2C43.1,47.4,34.4,47.4,31.8,47.4z"/>
	<path d="M31.5,44.3c-3.4,0-4.3-1.9-9.4-0.6c0,0-0.1,0,0-0.1c2.8-1.9,5.9-1.8,7.2-1.8c1,0,13.8,0,13.8,0c0.6,0,1,0.5,1,1.2
		c0,0.7-0.5,1.2-1,1.2C43.1,44.2,34.2,44.3,31.5,44.3z"/>
	<path d="M29,41.1c-3.1,0-5.1,0.7-5.7,1c0,0-0.1,0,0-0.1c3.4-3.6,7.4-3.4,8.4-3.4c1,0,11.4,0,11.4,0c0.6,0,1,0.5,1,1.2
		c0,0.7-0.5,1.2-1,1.2C43.1,41.1,31.6,41.1,29,41.1z"/>
	<path d="M33.1,13.2h-1.9l-1.1-4.2c0-0.2-0.1-0.5-0.2-0.9c-0.1-0.5-0.2-0.8-0.2-0.9c0,0.2-0.1,0.5-0.2,1c-0.1,0.4-0.2,0.8-0.2,0.9
		l-1.1,4.2h-1.9l-2-8H26l1,4.4c0.2,0.8,0.3,1.5,0.4,2.1c0-0.2,0.1-0.5,0.2-1c0.1-0.4,0.2-0.8,0.2-1l1.2-4.5h1.6l1.2,4.5
		c0.1,0.2,0.1,0.5,0.2,0.9c0.1,0.4,0.1,0.8,0.2,1.1c0-0.3,0.1-0.6,0.2-1.1c0.1-0.4,0.2-0.8,0.2-1l1-4.4h1.7L33.1,13.2z"/>
	<polygon points="37.8,13.2 36.1,13.2 36.1,5.1 40.7,5.1 40.7,6.5 37.8,6.5 37.8,8.6 40.5,8.6 40.5,10 37.8,10 	"/>
	<path d="M47.5,7.6c0,0.9-0.3,1.5-0.8,2c-0.5,0.5-1.3,0.7-2.3,0.7h-0.7v2.9H42v-8h2.6c1,0,1.7,0.2,2.2,0.6
		C47.3,6.2,47.5,6.8,47.5,7.6z M43.7,8.9h0.6c0.5,0,0.9-0.1,1.2-0.3c0.3-0.2,0.4-0.5,0.4-0.9c0-0.4-0.1-0.7-0.3-0.9
		c-0.2-0.2-0.6-0.3-1-0.3h-0.8V8.9z"/>
</g>
</svg>
